<svg xmlns="http://www.w3.org/2000/svg" version="1.1" xmlns:xlink="http://www.w3.org/1999/xlink" xmlns:svgjs="http://svgjs.dev/svgjs" width="2000" height="2000" viewBox="0 0 2000 2000"><g transform="matrix(1,0,0,1,0,0)"><svg viewBox="0 0 280 280" data-background-color="#f9f9f9" preserveAspectRatio="xMidYMid meet" height="2000" width="2000" xmlns="http://www.w3.org/2000/svg" xmlns:xlink="http://www.w3.org/1999/xlink"><g id="tight-bounds" transform="matrix(1,0,0,1,0,0)"><svg viewBox="0 0 280 280" height="280" width="280"><g><svg viewBox="0 0 280 280" height="280" width="280"><g><svg viewBox="0 0 280 280" height="280" width="280"><g id="textblocktransform"><svg viewBox="0 0 280 280" height="280" width="280" id="textblock"><g><svg viewBox="0 0 280 280" height="280" width="280"><g transform="matrix(1,0,0,1,74.00336708925556,76.20325720603208)"><svg viewBox="0 0 131.99326582148888 127.59348558793586" height="127.59348558793586" width="131.99326582148888"><g id="icon-0"><svg xmlns="http://www.w3.org/2000/svg" xml:space="preserve" viewBox="1 3 60.00000221304562 58" x="0" y="0" height="127.59348558793586" width="131.99326582148888" class="icon-jxe-0" data-fill-palette-color="accent" id="jxe-0"><path d="M31 56a1 1 0 0 1-1 1H4a1 1 0 0 1 0-2h14c1.654 0 3-1.346 3-3v-1.05c-0.333 0.017-0.662 0.05-1 0.05s-0.667-0.033-1-0.05V52a1 1 0 0 1-1 1H4c-1.654 0-3 1.346-3 3s1.346 3 3 3h26c1.654 0 3-1.346 3-3a1 1 0 0 1 1-1h5v-2h-5c-1.654 0-3 1.346-3 3M6.283 42a17.04 17.04 0 0 0 9.08 6.341c-1.248-1.557-2.29-3.73-3.043-6.341zM20 49c2.088 0 4.265-2.612 5.626-7H14.374c1.361 4.388 3.538 7 5.626 7M11.817 40c-0.459-2.138-0.735-4.496-0.794-7H3.051a16.9 16.9 0 0 0 1.958 7zM24.638 48.341A17.03 17.03 0 0 0 33.718 42h-6.037c-0.754 2.611-1.796 4.783-3.043 6.341" fill="#030303" data-fill-palette-color="accent"></path><circle cx="34" cy="26" r="1.0" fill="#030303" data-fill-palette-color="accent"></circle><path d="M11.817 24H5.008a16.9 16.9 0 0 0-1.958 7h7.973c0.059-2.504 0.335-4.862 0.794-7M23 24h-9.154c-0.467 2.058-0.762 4.412-0.823 7h11.003A4.95 4.95 0 0 1 23 28zM13.846 40h12.309c0.467-2.058 0.762-4.412 0.823-7H13.022c0.062 2.588 0.357 4.942 0.824 7M15.362 15.659A17.03 17.03 0 0 0 6.282 22h6.037c0.754-2.611 1.796-4.783 3.043-6.341M23 22v-6.71c-0.988-0.176-1.99-0.29-3-0.29-2.088 0-4.265 2.612-5.626 7zM36.949 33h-7.973c-0.059 2.504-0.335 4.862-0.794 7h6.809a16.9 16.9 0 0 0 1.958-7M39 7.618v6.764L45.764 11z" fill="#030303" data-fill-palette-color="accent"></path><path d="M58 3H28c-1.654 0-3 1.346-3 3v13h36V6c0-1.654-1.346-3-3-3M29 17h-2v-2h2z m2-10h-2v6h-2V7c0-1.103 0.897-2 2-2h2z m6 10.618V4.382L50.236 11zM59 17h-2v-2h2z m0-4h-2v-2h2z m0-4h-2V7h2zM25 28c0 1.654 1.346 3 3 3h30c1.654 0 3-1.346 3-3v-7H25z m2-3h4.184c0.414-1.161 1.514-2 2.816-2s2.402 0.839 2.816 2H59v2H36.816c-0.414 1.161-1.514 2-2.816 2s-2.402-0.839-2.816-2H27zM51 60.949V61h3c1.868 0 3.564-0.74 4.821-1.938A15 15 0 0 0 57 58.949c-3.722 0-6 1.295-6 2M45 54a1 1 0 0 0-1-1h-3v2h3a1 1 0 0 0 1-1M57 51c-2.222 0-4.459-0.43-6-1.268v8.503c2.303-1.244 6.154-1.576 9.187-0.97A6.95 6.95 0 0 0 61 54a6.96 6.96 0 0 0-0.835-3.311C59.17 50.891 58.093 51 57 51" fill="#030303" data-fill-palette-color="accent"></path><path d="M41.101 51H44c1.654 0 3 1.346 3 3s-1.346 3-3 3h-2.899A5.01 5.01 0 0 0 46 61h3V47h-3a5.01 5.01 0 0 0-4.899 4M58.773 48.894A6.97 6.97 0 0 0 54 47h-3c0 0.705 2.278 2 6 2 0.603 0 1.199-0.036 1.773-0.106" fill="#030303" data-fill-palette-color="accent"></path></svg></g></svg></g><g id="text-0"><path d="M29.214 105.945l-0.226 0.738-28.988-8.884 0.226-0.738 15.373 4.711 0.536-1.748-7.226-9.109 0.268-0.874 7.55 9.506 15.309-2.808-0.241 0.786-14.947 2.771-0.521 1.699z" fill="#030303" data-fill-palette-color="primary"></path><path d="M61.003 54.826v0c-0.953 0.952-1.84 1.574-2.659 1.865-0.814 0.296-1.566 0.348-2.255 0.157-0.694-0.197-1.338-0.52-1.932-0.971-0.589-0.455-1.144-0.944-1.665-1.466v0l-12.646-12.664 0.546-0.546 12.345 12.362c0.656 0.656 1.369 1.255 2.139 1.797 0.77 0.551 1.608 0.791 2.513 0.72 0.91-0.066 1.932-0.667 3.068-1.8v0c1.251-1.249 1.848-2.467 1.791-3.655-0.057-1.187-0.527-2.315-1.413-3.384v0l-13.227-13.245 0.546-0.546 16.831 16.854-0.475 0.474-1.773-1.632c0.272 0.771 0.317 1.645 0.135 2.622-0.178 0.972-0.801 1.991-1.869 3.058z" fill="#030303" data-fill-palette-color="primary"></path><path d="M111.334 26.853v0c-1.605 0.446-3.027 0.426-4.265-0.059-1.232-0.487-2.084-1.582-2.556-3.286v0l-0.862-3.102 0.744-0.207 0.861 3.103c0.377 1.357 1.103 2.262 2.178 2.716 1.075 0.453 2.307 0.487 3.696 0.101v0c1.455-0.404 2.537-1.038 3.246-1.903 0.709-0.864 0.865-2.008 0.47-3.43v0l-0.489-1.762c-0.326-1.174-0.83-2.025-1.51-2.553-0.681-0.528-1.457-0.895-2.331-1.103-0.873-0.207-1.794-0.373-2.763-0.497v0c-1.081-0.171-2.082-0.36-3.004-0.568-0.922-0.208-1.709-0.562-2.361-1.062-0.66-0.505-1.132-1.267-1.414-2.285v0l-0.438-1.576c-0.361-1.298-0.166-2.519 0.585-3.662 0.746-1.135 2.003-1.948 3.771-2.439v0c1.605-0.446 3.027-0.451 4.266-0.014 1.232 0.438 2.08 1.492 2.543 3.162v0l0.838 3.014-0.744 0.207-0.759-2.731c-0.413-1.488-1.12-2.451-2.12-2.89-1.007-0.437-2.28-0.442-3.82-0.014v0c-1.546 0.429-2.639 1.151-3.278 2.165-0.634 1.005-0.775 2.144-0.421 3.417v0l0.231 0.831c0.283 1.018 0.774 1.763 1.475 2.237 0.694 0.475 1.466 0.801 2.317 0.98 0.851 0.178 1.642 0.334 2.375 0.468v0c1.037 0.141 2.047 0.335 3.029 0.582 0.987 0.239 1.856 0.662 2.608 1.268 0.752 0.606 1.308 1.559 1.669 2.857v0l0.489 1.761c0.335 1.207 0.333 2.223-0.007 3.049-0.34 0.825-0.884 1.5-1.631 2.024-0.754 0.526-1.626 0.926-2.618 1.201z" fill="#030303" data-fill-palette-color="primary"></path><path d="M167.747 26.403v0c-1.625-0.366-2.868-1.056-3.73-2.068-0.855-1.012-1.088-2.38-0.7-4.104v0l0.708-3.141 0.753 0.169-0.708 3.142c-0.31 1.374-0.098 2.515 0.635 3.422 0.733 0.908 1.802 1.52 3.209 1.837v0c1.473 0.332 2.726 0.284 3.759-0.142 1.033-0.427 1.712-1.36 2.037-2.8v0l0.402-1.784c0.268-1.189 0.227-2.177-0.124-2.963-0.35-0.787-0.861-1.478-1.532-2.074-0.671-0.595-1.404-1.177-2.199-1.745v0c-0.871-0.661-1.664-1.302-2.379-1.92-0.714-0.619-1.24-1.303-1.578-2.053-0.343-0.757-0.398-1.651-0.166-2.682v0l0.359-1.595c0.296-1.315 1.045-2.298 2.247-2.951 1.194-0.647 2.686-0.769 4.477-0.366v0c1.625 0.366 2.88 1.034 3.765 2.004 0.879 0.968 1.127 2.298 0.746 3.99v0l-0.687 3.051-0.753-0.169 0.622-2.765c0.339-1.506 0.172-2.689-0.502-3.549-0.681-0.861-1.8-1.468-3.359-1.818v0c-1.566-0.353-2.87-0.234-3.912 0.357-1.034 0.586-1.697 1.523-1.987 2.811v0l-0.189 0.843c-0.232 1.03-0.151 1.92 0.242 2.668 0.387 0.747 0.913 1.4 1.578 1.959 0.665 0.559 1.289 1.071 1.872 1.535v0c0.847 0.614 1.645 1.263 2.394 1.945 0.757 0.677 1.323 1.461 1.698 2.351 0.376 0.89 0.415 1.992 0.12 3.306v0l-0.402 1.784c-0.275 1.222-0.758 2.116-1.448 2.682-0.69 0.566-1.488 0.904-2.394 1.013-0.913 0.107-1.871 0.047-2.874-0.18z" fill="#030303" data-fill-palette-color="primary"></path><path d="M215.076 50.073l-0.583-0.506 19.878-22.893 0.583 0.506-5.84 6.726c0.75-0.326 1.618-0.433 2.605-0.32 0.987 0.113 2.048 0.662 3.183 1.647v0c1.017 0.883 1.703 1.721 2.057 2.512 0.354 0.801 0.46 1.552 0.317 2.253-0.147 0.706-0.427 1.369-0.839 1.989-0.412 0.619-0.86 1.208-1.345 1.765v0l-11.733 13.513-0.583-0.506 11.454-13.191c0.63-0.726 1.187-1.485 1.668-2.278 0.477-0.797 0.65-1.647 0.519-2.549-0.135-0.898-0.809-1.873-2.021-2.925v0c-1.329-1.154-2.587-1.663-3.772-1.527-1.18 0.141-2.272 0.691-3.275 1.649v0z" fill="#030303" data-fill-palette-color="primary"></path><path d="M250.032 101.518v0c-0.25-0.695-0.386-1.455-0.41-2.282-0.023-0.826 0.242-1.63 0.796-2.412 0.556-0.775 1.605-1.44 3.147-1.994v0l1.539-0.553c0.962-0.346 1.886-0.429 2.77-0.251 0.882 0.172 1.683 0.478 2.402 0.918 0.719 0.44 1.345 0.898 1.876 1.377 0.529 0.472 0.916 0.818 1.162 1.039v0c1.096 0.966 2.017 1.7 2.765 2.201 0.742 0.503 1.431 0.81 2.068 0.919 0.637 0.109 1.331 0.029 2.083-0.241v0l0.631-0.227c1.032-0.371 1.697-0.854 1.994-1.45 0.294-0.602 0.383-1.257 0.266-1.963-0.119-0.713-0.303-1.413-0.55-2.101v0c-0.479-1.332-1.064-2.24-1.757-2.725-0.686-0.487-1.439-0.692-2.26-0.613-0.823 0.073-1.703 0.277-2.639 0.614v0l-1.864 0.67-0.261-0.727 1.95-0.7c1.752-0.63 3.26-0.779 4.523-0.449 1.256 0.333 2.265 1.557 3.025 3.672v0c0.584 1.625 0.794 2.87 0.629 3.735-0.166 0.858-0.561 1.493-1.183 1.904-0.622 0.411-1.338 0.761-2.147 1.052v0l-18.21 6.543-0.243-0.678 3.307-1.189c-1.188 0.017-2.263-0.32-3.224-1.011-0.969-0.695-1.698-1.721-2.185-3.078zM250.806 101.39v0c0.479 1.332 1.137 2.264 1.977 2.798 0.839 0.533 1.813 0.78 2.922 0.742 1.113-0.047 2.287-0.293 3.523-0.738v0l8.335-2.995c-0.841-0.237-1.66-0.684-2.457-1.34-0.795-0.65-1.607-1.319-2.437-2.006v0c-0.693-0.607-1.405-1.197-2.135-1.769-0.737-0.57-1.555-0.974-2.454-1.212-0.905-0.236-1.931-0.148-3.078 0.264v0l-1.176 0.423c-1.421 0.511-2.369 1.107-2.844 1.788-0.468 0.679-0.666 1.38-0.593 2.102 0.072 0.722 0.212 1.37 0.417 1.943z" fill="#030303" data-fill-palette-color="primary"></path><path d="M0.874 139.598c0-6.396 5.185-11.582 11.582-11.582 6.396 0 11.582 5.185 11.581 11.582 0 6.396-5.185 11.582-11.581 11.582-6.396 0-11.582-5.185-11.582-11.582z" fill="#030303" data-fill-palette-color="primary"></path><path d="M256.836 139.598c0-6.396 5.185-11.582 11.582-11.582 6.396 0 11.582 5.185 11.582 11.582 0 6.396-5.185 11.582-11.582 11.582-6.396 0-11.582-5.185-11.582-11.582z" fill="#030303" data-fill-palette-color="primary"></path></g><g id="text-1"><path d="M5.786 180.743l-0.244-0.785 30.876-9.553 0.243 0.786-16.369 5.064 0.576 1.863 11.83 3.698 0.288 0.931-12.356-3.853-11.812 11.65-0.256-0.825 11.505-11.406-0.561-1.814z" fill="#030303" data-fill-palette-color="secondary"></path><path d="M43.237 242.497v0c-1.016-1.014-1.68-1.954-1.992-2.82-0.317-0.871-0.375-1.675-0.175-2.413 0.21-0.738 0.556-1.42 1.04-2.048 0.478-0.632 0.995-1.227 1.549-1.783v0l13.482-13.508 0.582 0.581-13.151 13.177c-0.703 0.705-1.342 1.469-1.916 2.293-0.583 0.824-0.839 1.717-0.766 2.68 0.073 0.972 0.713 2.061 1.921 3.266v0c1.332 1.33 2.635 1.965 3.909 1.907 1.269-0.063 2.47-0.567 3.604-1.512v0l14.099-14.127 0.582 0.581-17.937 17.973-0.511-0.509 1.744-1.891c-0.828 0.293-1.759 0.344-2.794 0.154-1.039-0.195-2.129-0.862-3.27-2.001z" fill="#030303" data-fill-palette-color="secondary"></path><path d="M104.645 276.618v0c-1.716-0.477-3.001-1.278-3.854-2.401-0.861-1.125-1.039-2.594-0.534-4.408v0l0.92-3.307 0.793 0.22-0.921 3.308c-0.403 1.448-0.238 2.675 0.494 3.679 0.734 0.999 1.842 1.704 3.323 2.117v0c1.553 0.432 2.887 0.449 4.003 0.049 1.123-0.397 1.895-1.353 2.316-2.866v0l0.523-1.879c0.349-1.252 0.36-2.304 0.034-3.154-0.331-0.858-0.838-1.622-1.524-2.29-0.685-0.669-1.433-1.33-2.242-1.984v0c-0.895-0.748-1.707-1.47-2.434-2.164-0.726-0.701-1.252-1.462-1.578-2.284-0.322-0.814-0.331-1.765-0.028-2.855v0l0.469-1.683c0.385-1.383 1.234-2.387 2.546-3.013 1.306-0.627 2.899-0.68 4.778-0.156v0c1.716 0.477 3.018 1.255 3.905 2.331 0.886 1.083 1.082 2.515 0.587 4.296v0l-0.894 3.209-0.792-0.22 0.811-2.916c0.439-1.579 0.324-2.844-0.345-3.797-0.676-0.954-1.84-1.661-3.49-2.121v0c-1.644-0.458-3.035-0.398-4.172 0.178-1.136 0.57-1.891 1.53-2.267 2.88v0l-0.248 0.891c-0.303 1.089-0.266 2.042 0.112 2.856 0.378 0.815 0.904 1.538 1.579 2.169 0.675 0.631 1.313 1.205 1.913 1.724v0c0.872 0.707 1.69 1.44 2.455 2.201 0.757 0.766 1.314 1.631 1.671 2.595 0.349 0.969 0.331 2.144-0.053 3.528v0l-0.523 1.878c-0.358 1.285-0.918 2.212-1.681 2.78-0.763 0.568-1.631 0.885-2.605 0.951-0.974 0.066-1.99-0.048-3.047-0.342z" fill="#030303" data-fill-palette-color="secondary"></path><path d="M173.032 277.417v0c-1.738 0.387-3.249 0.286-4.532-0.303-1.289-0.587-2.138-1.8-2.546-3.637v0l-0.746-3.352 0.803-0.178 0.746 3.351c0.326 1.467 1.049 2.472 2.168 3.014 1.118 0.535 2.427 0.636 3.928 0.302v0c1.573-0.35 2.758-0.964 3.555-1.842 0.803-0.879 1.034-2.086 0.693-3.619v0l-0.423-1.904c-0.282-1.269-0.767-2.202-1.455-2.798-0.696-0.601-1.503-1.036-2.423-1.302-0.92-0.267-1.89-0.499-2.912-0.695v0c-1.142-0.238-2.198-0.493-3.166-0.763-0.97-0.277-1.793-0.701-2.468-1.272-0.667-0.566-1.123-1.401-1.369-2.505v0l-0.379-1.705c-0.312-1.401-0.036-2.687 0.827-3.857 0.857-1.169 2.237-1.965 4.141-2.388v0c1.738-0.387 3.253-0.314 4.543 0.217 1.292 0.538 2.139 1.709 2.541 3.514v0l0.723 3.252-0.803 0.178-0.657-2.954c-0.356-1.6-1.053-2.662-2.093-3.187-1.046-0.523-2.405-0.599-4.078-0.227v0c-1.666 0.37-2.865 1.078-3.596 2.121-0.734 1.037-0.948 2.24-0.644 3.608v0l0.201 0.903c0.246 1.104 0.727 1.926 1.443 2.467 0.717 0.541 1.522 0.931 2.415 1.17 0.892 0.239 1.726 0.445 2.499 0.619v0c1.102 0.213 2.169 0.475 3.203 0.786 1.028 0.319 1.927 0.82 2.696 1.502 0.764 0.69 1.302 1.736 1.614 3.138v0l0.423 1.903c0.29 1.302 0.232 2.383-0.173 3.244-0.405 0.86-1.022 1.549-1.851 2.066-0.828 0.517-1.778 0.895-2.848 1.133z" fill="#030303" data-fill-palette-color="secondary"></path><path d="M230.582 248.209l-0.624 0.536-21.072-24.506 0.624-0.536 6.185 7.193c-0.225-0.843-0.2-1.775 0.074-2.796 0.264-1.022 1.007-2.058 2.23-3.11v0c1.088-0.936 2.081-1.526 2.978-1.77 0.888-0.245 1.691-0.24 2.412 0.016 0.725 0.261 1.381 0.656 1.97 1.185 0.589 0.529 1.14 1.092 1.652 1.688v0l12.443 14.471-0.624 0.536-12.138-14.117c-0.671-0.78-1.389-1.485-2.153-2.114-0.764-0.629-1.631-0.942-2.601-0.937-0.975-0.001-2.109 0.554-3.403 1.666v0c-1.427 1.227-2.158 2.476-2.191 3.746-0.038 1.274 0.37 2.513 1.226 3.715v0z" fill="#030303" data-fill-palette-color="secondary"></path><path d="M273.321 186.782v0c-0.27 0.738-0.676 1.454-1.219 2.149-0.549 0.693-1.314 1.167-2.294 1.422-0.989 0.258-2.303 0.087-3.944-0.513v0l-1.631-0.597c-1.03-0.377-1.845-0.938-2.445-1.684-0.6-0.746-1.045-1.547-1.337-2.404-0.288-0.848-0.486-1.649-0.593-2.402-0.109-0.747-0.189-1.295-0.241-1.645v0c-0.242-1.545-0.496-2.774-0.761-3.686-0.263-0.918-0.617-1.643-1.064-2.174-0.443-0.523-1.065-0.931-1.867-1.224v0l-0.677-0.247c-1.094-0.4-1.967-0.457-2.621-0.17-0.647 0.29-1.164 0.767-1.552 1.433-0.392 0.657-0.723 1.354-0.992 2.092v0c-0.517 1.412-0.66 2.553-0.431 3.423 0.232 0.864 0.71 1.547 1.435 2.05 0.724 0.503 1.586 0.937 2.584 1.302v0l1.975 0.723-0.283 0.772-2.07-0.757c-1.863-0.682-3.197-1.588-4.002-2.719-0.802-1.137-0.793-2.828 0.029-5.073v0c0.635-1.736 1.314-2.901 2.036-3.495 0.726-0.585 1.484-0.834 2.274-0.747 0.784 0.085 1.611 0.287 2.482 0.606v0l19.363 7.085-0.265 0.725-3.52-1.288c0.986 0.793 1.636 1.806 1.949 3.039 0.316 1.226 0.209 2.561-0.318 4.004zM272.6 186.356v0c0.519-1.418 0.616-2.63 0.292-3.635-0.322-1.012-0.949-1.879-1.881-2.603-0.939-0.726-2.066-1.329-3.382-1.811v0l-8.862-3.243c0.517 0.773 0.878 1.699 1.083 2.776 0.204 1.077 0.41 2.18 0.617 3.308v0c0.158 0.966 0.341 1.935 0.549 2.905 0.214 0.972 0.609 1.863 1.185 2.673 0.576 0.809 1.475 1.437 2.696 1.884v0l1.25 0.457c1.513 0.554 2.694 0.716 3.543 0.485 0.851-0.237 1.495-0.675 1.93-1.316 0.43-0.643 0.757-1.27 0.98-1.88z" fill="#030303" data-fill-palette-color="secondary"></path></g></svg></g></svg></g></svg></g></svg></g><defs></defs></svg><rect width="280" height="280" fill="none" stroke="none" visibility="hidden"></rect></g></svg></g></svg>